<svg width="247" height="32" viewBox="0 0 247 32" fill="none" xmlns="http://www.w3.org/2000/svg">
<path d="M51.1329 31.2629L32.3608 31.2627L28.5741 27.4761V4.88421L32.3608 1.14063L51.1329 1.14084L54.8766 4.88442V11.8552H48.5081V6.7331L34.9426 6.73289V25.6848L48.5081 25.685V20.3989H54.8766V27.4763L51.1329 31.2629Z" fill="#FFE9D4"/>
<path d="M56.7908 31.2673V1.14063H63.1593V13.5404H77.3426V1.14063H83.7111V31.2673H77.3426V19.0482H63.1593V31.2673H56.7908Z" fill="#FFE9D4"/>
<path d="M107.704 31.2708H89.581L85.7944 27.4842V4.88421L89.581 1.14062H107.704L111.49 4.88421V27.4842L107.704 31.2708ZM92.1628 6.71114V25.6471H105.165V6.71114H92.1628Z" fill="#FFE9D4"/>
<path d="M26.8157 31.2548H1.06641L1.06669 1.14063H26.5921V6.87259H7.50666V13.2978H26.5921V19.0502H7.50666L7.50665 25.4905H26.8159L26.8157 31.2548Z" fill="#FFE9D4"/>
<path d="M142.757 31.2705H117.891V21.6169L136.264 8.32678V6.76834H118.107V1.14062H142.498V10.7943L124.124 24.0844V25.6428H142.757V31.2705Z" fill="#FF5508"/>
<path d="M169.142 31.2705H144.249V1.14062H168.926V6.89821H150.475V13.2985H168.926V19.0554H150.475V25.4697H169.142V31.2705Z" fill="#FF5508"/>
<path fill-rule="evenodd" clip-rule="evenodd" d="M170.638 31.2705H176.395V21.4043H188.363L189.877 22.919V31.2705H195.808V21.7467L192.691 18.6298L195.635 15.6428V6.89821V4.94567L191.825 1.14062H170.638V6.89821V31.2705ZM176.395 6.89821H189.877V14.1281L188.363 15.6428H176.395V6.89821Z" fill="#FF5508"/>
<path d="M245.398 21.7079H239.64V10.9714L233.608 17.0029L236.085 19.4795L230.054 25.5108H239.64V31.2698H224.035L220.222 27.4657L220.222 10.6305H225.98V21.4386L231.68 15.7389L229.203 13.2623L235.567 6.89821H225.98V1.14062H241.592L245.398 4.94837V21.7079Z" fill="#FF5508"/>
<path d="M198.465 13.2985H217.234V19.0554H198.465V13.2985Z" fill="#FF5508"/>
</svg>
